<svg width="146" height="149" viewBox="0 0 146 149" fill="none" xmlns="http://www.w3.org/2000/svg">
<g clip-path="url(#clip0_14665_55923)">
<path d="M54.6928 129.559C54.6928 132.643 57.1238 135.728 60.7703 135.728H85.0803C88.7268 135.728 91.1578 132.643 91.1578 129.559V123.389H54.6928V129.559ZM72.9253 12.3364C49.2231 12.3364 30.3828 31.4621 30.3828 55.5235C30.3828 70.3305 37.6758 83.2866 48.6153 90.6901V104.88C48.6153 107.965 51.0463 111.05 54.6928 111.05H91.1578C94.8043 111.05 97.2353 107.965 97.2353 104.88V90.6901C108.175 82.6697 115.468 69.7136 115.468 55.5235C115.468 31.4621 96.6276 12.3364 72.9253 12.3364Z" fill="#FFE600"/>
<circle cx="72.9287" cy="2.21" r="2.21" fill="black" fill-opacity="0.77"/>
<circle cx="53.0381" cy="6.62992" r="2.21" fill="black" fill-opacity="0.77"/>
<circle cx="90.6084" cy="6.62992" r="2.21" fill="black" fill-opacity="0.77"/>
<circle cx="108.288" cy="15.4698" r="2.21" fill="black" fill-opacity="0.77"/>
<circle cx="37.5694" cy="15.4698" r="2.21" fill="black" fill-opacity="0.77"/>
<circle cx="28.7256" cy="28.73" r="2.21" fill="black" fill-opacity="0.77"/>
<circle cx="117.132" cy="30.94" r="2.21" fill="black" fill-opacity="0.77"/>
<circle cx="121.546" cy="46.4102" r="2.21" fill="black" fill-opacity="0.77"/>
<circle cx="24.3116" cy="44.2002" r="2.21" fill="black" fill-opacity="0.77"/>
</g>
<defs>
<clipPath id="clip0_14665_55923">
<rect width="145.86" height="148.07" fill="white"/>
</clipPath>
</defs>
</svg>
