<svg width="46" height="67" viewBox="0 0 46 67" fill="none" xmlns="http://www.w3.org/2000/svg">
<path d="M17.028 47.4532V44.4542L17.7362 43.3912C20.7267 47.1116 24.6089 49.3514 28.8322 49.3514C38.2494 49.3514 45.8828 38.3043 45.8828 24.6757C45.8828 11.0471 38.2494 0 28.8322 0C19.4151 0 11.7817 11.0471 11.7817 24.6757C11.7817 30.7877 13.3293 36.4061 15.9 40.7339L15.1655 41.7588H13.0932L0.00364663 60.7401L3.91216 66.3966L17.028 47.4532ZM17.028 24.6757C17.028 15.223 22.3006 7.59252 28.8322 7.59252C35.3639 7.59252 40.6365 15.223 40.6365 24.6757C40.6365 34.1284 35.3639 41.7588 28.8322 41.7588C22.3006 41.7588 17.028 34.1284 17.028 24.6757Z" fill="#F25D5D"/>
</svg>
